# xmcd CD database file
#
# Track frame offsets:
#	150
#	16980
#	35945
#	53425
#	72372
#	89582
#	107760
#	127102
#	150325
#	167482
#	182935
#
# Disc length: 2536 seconds
#
# Revision: 0
# Processed by: cddbd v1.5PL3 Copyright (c) Steve Scherf et al.
# Submitted via: CDex 1.51
#
DISCID=9009e60b
DTITLE=Boystyle - '02 Summer〜'03 Spring Collection 音
DYEAR=2003
DGENRE=J-Pop
TTITLE0=Boys be Stylish!
TTITLE1=ハピネス
TTITLE2=Talk to Myself
TTITLE3=風になって　空になって
TTITLE4=Ideology[Bonus Track]
TTITLE5=七色冒険
TTITLE6=風になって　空になって
TTITLE7=Empty World[Special Edition Mix]
TTITLE8=最低ブギ[Bonus Track]
TTITLE9=最強 mellow kiss
TTITLE10=Wish[Thanks Track]
EXTD=YEAR: 2003
EXTT0=
EXTT1=
EXTT2=
EXTT3=
EXTT4=
EXTT5=
EXTT6=
EXTT7=
EXTT8=
EXTT9=
EXTT10=
PLAYORDER=
